<svg width="2000" height="2000" viewBox="0 0 2000 2000" fill="none" xmlns="http://www.w3.org/2000/svg">
<rect width="2000" height="2000" fill="white"/>
<g filter="url(#filter0_b_101_24)">
<g filter="url(#filter1_d_101_24)">
<path d="M576.524 1396.75C557.719 1420.41 556.462 1432.73 538.792 1457.25C517.337 1487.02 502.654 1493.67 487.495 1512.96C457.369 1551.28 447.277 1603.28 478.081 1640.42C508.821 1677.47 564.454 1688.21 611.021 1675.98C633.361 1670.12 647.301 1659.14 674.816 1657.33C700.679 1655.64 730.917 1668.21 754.938 1666.66C776.934 1665.23 832.659 1668.21 863.773 1622.37C892.065 1580.69 883.635 1543.27 855.956 1501.71C844.675 1484.77 801.551 1459.64 789.446 1449.22C769.015 1431.64 768.272 1403.91 727.29 1376.25C677.795 1342.86 610.369 1354.17 576.524 1396.75Z" fill="black" fill-opacity="0.4" shape-rendering="crispEdges"/>
<path d="M476.707 1346.42C458.525 1319.2 433.961 1292.77 407.136 1295.39C357.635 1300.22 353.68 1397.3 358.27 1417.83C366.592 1455.05 398.267 1489.71 415.765 1496.78C451.171 1511.09 485.69 1507.72 502.608 1473.48C525.485 1427.19 502.565 1385.13 476.707 1346.42Z" fill="black" fill-opacity="0.4" shape-rendering="crispEdges"/>
<path d="M621.844 1200.07C617.679 1165 605.618 1121.3 576.47 1113.39C539.854 1103.45 500.658 1149.24 480.274 1187.15C450.606 1242.32 465.489 1319.38 512.063 1346.65C545.518 1366.24 593.132 1353.38 615.142 1310.94C633.095 1276.33 627.686 1249.26 621.844 1200.07Z" fill="black" fill-opacity="0.4" shape-rendering="crispEdges"/>
<path d="M816.014 1177.39C789.274 1133.21 734.312 1094.96 705.304 1105.05C676.296 1115.13 673.385 1148.13 670.696 1174.81C664.542 1235.86 674.665 1314.03 724.725 1336.66C764.885 1354.82 804.736 1328.32 819.676 1302.11C836.11 1273.28 843.577 1222.94 816.014 1177.39Z" fill="black" fill-opacity="0.4" shape-rendering="crispEdges"/>
<path d="M954.786 1341.95C947.054 1310.27 931.513 1265.2 897.373 1264.26C876.372 1263.68 859.729 1277.43 842.929 1300.6C810.487 1345.36 797.629 1419.66 821.073 1450.33C846.973 1484.21 885.855 1485.89 921.183 1456.46C955.007 1428.29 965.223 1384.72 954.786 1341.95Z" fill="black" fill-opacity="0.4" shape-rendering="crispEdges"/>
</g>
<g filter="url(#filter2_d_101_24)">
<path d="M1273.62 1038.76C1250.59 1058.33 1246.96 1070.17 1224.87 1090.8C1198.04 1115.84 1182.35 1119.51 1163.74 1135.49C1126.75 1167.24 1106.75 1216.29 1129.77 1258.7C1152.73 1301.01 1205.23 1322.34 1253.28 1319.38C1276.33 1317.97 1292.14 1309.9 1319.48 1313.47C1345.18 1316.82 1372.4 1335.03 1396.27 1338.17C1418.12 1341.04 1472.21 1354.77 1511.63 1315.84C1547.47 1280.44 1546.46 1242.1 1527.38 1195.96C1519.6 1177.15 1482.17 1144.12 1472.32 1131.56C1455.69 1110.34 1460.34 1083 1425.5 1047.92C1383.43 1005.55 1315.09 1003.56 1273.62 1038.76Z" fill="black" fill-opacity="0.4" shape-rendering="crispEdges"/>
<path d="M1185.47 970.02C1172.92 939.787 1153.95 909.094 1127.13 906.46C1077.63 901.599 1054.91 996.063 1055.43 1017.09C1056.37 1055.22 1080.72 1095.37 1096.51 1105.7C1128.47 1126.6 1162.98 1130 1186.22 1099.7C1217.65 1058.73 1203.33 1013.02 1185.47 970.02Z" fill="black" fill-opacity="0.4" shape-rendering="crispEdges"/>
<path d="M1356.25 854.616C1358.97 819.403 1355.62 774.199 1328.56 760.783C1294.57 743.929 1247.23 781.239 1219.88 814.473C1180.07 862.84 1179.71 941.315 1220.11 977.11C1249.13 1002.82 1298.33 999.44 1328.16 962.084C1352.49 931.614 1352.43 904.007 1356.25 854.616Z" fill="black" fill-opacity="0.4" shape-rendering="crispEdges"/>
<path d="M1551.13 870.05C1533.47 821.515 1486.97 773.334 1456.56 777.596C1426.15 781.859 1416.89 813.672 1409.07 839.323C1391.19 898.014 1385.95 976.662 1430.67 1008.58C1466.54 1034.18 1510.78 1015.92 1530.52 993.11C1552.23 968.014 1569.33 920.08 1551.13 870.05Z" fill="black" fill-opacity="0.4" shape-rendering="crispEdges"/>
<path d="M1655.33 1058.41C1653.89 1025.83 1647.39 978.607 1614.08 971.056C1593.59 966.411 1574.6 976.668 1553.62 996.144C1513.11 1033.75 1486.08 1104.15 1503.13 1138.78C1521.96 1177.04 1559.78 1186.24 1600.14 1164.23C1638.79 1143.15 1657.27 1102.39 1655.33 1058.41Z" fill="black" fill-opacity="0.4" shape-rendering="crispEdges"/>
</g>
<g filter="url(#filter3_d_101_24)">
<path d="M602.342 652.423C586.191 677.968 586.267 690.358 571.337 716.635C553.208 748.539 539.326 756.731 526.329 777.533C500.499 818.874 496.06 871.662 530.679 905.266C565.227 938.799 621.691 943.488 666.674 926.325C688.253 918.091 700.932 905.679 728.092 900.924C753.623 896.454 785.038 905.707 808.752 901.576C830.467 897.794 886.19 894.759 912.193 845.842C935.838 801.361 923.432 765.064 891.443 726.72C878.405 711.091 832.828 690.743 819.673 681.688C797.469 666.405 793.748 638.914 750.029 615.83C697.228 587.95 631.411 606.447 602.342 652.423Z" fill="black" fill-opacity="0.4" shape-rendering="crispEdges"/>
<path d="M497.69 613.119C476.686 588.011 449.422 564.377 423.034 569.868C374.34 580.002 380.85 676.94 387.621 696.856C399.899 732.967 435.118 764.015 453.274 769.163C490.014 779.579 523.97 772.517 537.109 736.661C554.873 688.179 527.563 648.828 497.69 613.119Z" fill="black" fill-opacity="0.4" shape-rendering="crispEdges"/>
<path d="M626.244 452.008C618.331 417.588 601.64 375.444 571.811 370.715C534.338 364.774 500.294 414.51 484.105 454.393C460.545 512.437 483.628 587.441 532.866 609.549C568.235 625.429 614.188 607.516 631.507 562.961C645.633 526.619 637.343 500.286 626.244 452.008Z" fill="black" fill-opacity="0.4" shape-rendering="crispEdges"/>
<path d="M816.848 408.578C785.511 367.524 726.754 335.415 698.999 348.56C671.244 361.705 671.9 394.832 672.096 421.647C672.544 483 691.016 559.627 743.22 576.743C785.1 590.474 821.87 559.847 833.904 532.18C847.141 501.747 849.151 450.896 816.848 408.578Z" fill="black" fill-opacity="0.4" shape-rendering="crispEdges"/>
<path d="M972.516 557.258C961.42 526.589 941.122 483.459 907.079 486.193C886.137 487.874 871.07 503.332 856.86 528.182C829.42 576.166 824.629 651.419 851.235 679.386C880.629 710.285 919.466 707.775 951.425 674.72C982.022 643.072 987.491 598.653 972.516 557.258Z" fill="black" fill-opacity="0.4" shape-rendering="crispEdges"/>
</g>
</g>
<mask id="mask0_101_24" style="mask-type:alpha" maskUnits="userSpaceOnUse" x="342" y="345" width="1300" height="1336">
<path d="M562.524 1396.75C543.719 1420.41 542.462 1432.73 524.792 1457.25C503.337 1487.02 488.654 1493.67 473.495 1512.96C443.369 1551.28 433.277 1603.28 464.081 1640.42C494.821 1677.47 550.454 1688.21 597.021 1675.98C619.361 1670.12 633.301 1659.14 660.816 1657.33C686.679 1655.64 716.917 1668.21 740.938 1666.66C762.934 1665.23 818.659 1668.21 849.773 1622.37C878.065 1580.69 869.635 1543.27 841.956 1501.71C830.675 1484.77 787.551 1459.64 775.446 1449.22C755.015 1431.64 754.272 1403.91 713.29 1376.25C663.795 1342.86 596.369 1354.17 562.524 1396.75Z" fill="#D9D9D9"/>
<path d="M462.707 1346.42C444.525 1319.2 419.961 1292.77 393.136 1295.39C343.635 1300.22 339.68 1397.3 344.27 1417.83C352.592 1455.05 384.267 1489.71 401.765 1496.78C437.171 1511.09 471.69 1507.72 488.608 1473.48C511.485 1427.19 488.565 1385.13 462.707 1346.42Z" fill="#D9D9D9"/>
<path d="M607.844 1200.07C603.679 1165 591.618 1121.3 562.47 1113.39C525.854 1103.45 486.658 1149.24 466.274 1187.15C436.606 1242.32 451.489 1319.38 498.063 1346.65C531.518 1366.24 579.132 1353.38 601.142 1310.94C619.095 1276.33 613.686 1249.26 607.844 1200.07Z" fill="#D9D9D9"/>
<path d="M802.014 1177.39C775.274 1133.21 720.312 1094.96 691.304 1105.05C662.296 1115.13 659.385 1148.13 656.696 1174.81C650.542 1235.86 660.665 1314.03 710.725 1336.66C750.885 1354.82 790.736 1328.32 805.676 1302.11C822.11 1273.28 829.577 1222.94 802.014 1177.39Z" fill="#D9D9D9"/>
<path d="M940.786 1341.95C933.054 1310.27 917.513 1265.2 883.373 1264.26C862.372 1263.68 845.729 1277.43 828.929 1300.6C796.487 1345.36 783.629 1419.66 807.073 1450.33C832.973 1484.21 871.855 1485.89 907.183 1456.46C941.007 1428.29 951.223 1384.72 940.786 1341.95Z" fill="#D9D9D9"/>
<path d="M1259.62 1038.76C1236.59 1058.33 1232.96 1070.17 1210.87 1090.8C1184.04 1115.84 1168.35 1119.51 1149.74 1135.49C1112.75 1167.24 1092.75 1216.29 1115.77 1258.7C1138.73 1301.01 1191.23 1322.34 1239.28 1319.38C1262.33 1317.97 1278.14 1309.9 1305.48 1313.47C1331.18 1316.82 1358.4 1335.03 1382.27 1338.17C1404.12 1341.04 1458.21 1354.77 1497.63 1315.84C1533.47 1280.44 1532.46 1242.1 1513.38 1195.96C1505.6 1177.15 1468.17 1144.12 1458.32 1131.56C1441.69 1110.34 1446.34 1083 1411.5 1047.92C1369.43 1005.55 1301.09 1003.56 1259.62 1038.76Z" fill="#D9D9D9"/>
<path d="M1171.47 970.02C1158.92 939.787 1139.95 909.094 1113.13 906.46C1063.63 901.599 1040.91 996.063 1041.43 1017.09C1042.37 1055.22 1066.72 1095.37 1082.51 1105.7C1114.47 1126.6 1148.98 1130 1172.22 1099.7C1203.65 1058.73 1189.33 1013.02 1171.47 970.02Z" fill="#D9D9D9"/>
<path d="M1342.25 854.616C1344.97 819.403 1341.62 774.199 1314.56 760.783C1280.57 743.929 1233.23 781.239 1205.88 814.473C1166.07 862.84 1165.71 941.315 1206.11 977.11C1235.13 1002.82 1284.33 999.44 1314.16 962.084C1338.49 931.614 1338.43 904.007 1342.25 854.616Z" fill="#D9D9D9"/>
<path d="M1537.13 870.05C1519.47 821.515 1472.97 773.334 1442.56 777.596C1412.15 781.859 1402.89 813.672 1395.07 839.323C1377.19 898.014 1371.95 976.662 1416.67 1008.58C1452.54 1034.18 1496.78 1015.92 1516.52 993.11C1538.23 968.014 1555.33 920.08 1537.13 870.05Z" fill="#D9D9D9"/>
<path d="M1641.33 1058.41C1639.89 1025.83 1633.39 978.607 1600.08 971.056C1579.59 966.411 1560.6 976.668 1539.62 996.144C1499.11 1033.75 1472.08 1104.15 1489.13 1138.78C1507.96 1177.04 1545.78 1186.24 1586.14 1164.23C1624.79 1143.15 1643.27 1102.39 1641.33 1058.41Z" fill="#D9D9D9"/>
<path d="M588.342 652.423C572.191 677.968 572.267 690.358 557.337 716.635C539.208 748.539 525.326 756.731 512.329 777.533C486.499 818.874 482.06 871.662 516.679 905.266C551.227 938.799 607.691 943.488 652.674 926.325C674.253 918.091 686.932 905.679 714.092 900.924C739.623 896.454 771.038 905.707 794.752 901.576C816.467 897.794 872.19 894.759 898.193 845.842C921.838 801.361 909.432 765.064 877.443 726.72C864.405 711.091 818.828 690.743 805.673 681.688C783.469 666.405 779.748 638.914 736.029 615.83C683.228 587.95 617.411 606.447 588.342 652.423Z" fill="#D9D9D9"/>
<path d="M483.69 613.119C462.686 588.011 435.422 564.377 409.034 569.868C360.34 580.002 366.85 676.94 373.621 696.856C385.899 732.967 421.118 764.015 439.274 769.163C476.014 779.579 509.97 772.517 523.109 736.661C540.873 688.179 513.563 648.828 483.69 613.119Z" fill="#D9D9D9"/>
<path d="M612.244 452.008C604.331 417.588 587.64 375.444 557.811 370.715C520.338 364.774 486.294 414.51 470.105 454.393C446.545 512.437 469.628 587.441 518.866 609.549C554.235 625.429 600.188 607.516 617.507 562.961C631.633 526.619 623.343 500.286 612.244 452.008Z" fill="#D9D9D9"/>
<path d="M802.848 408.578C771.511 367.524 712.754 335.415 684.999 348.56C657.244 361.705 657.9 394.832 658.096 421.647C658.544 483 677.016 559.627 729.22 576.743C771.1 590.474 807.87 559.847 819.904 532.18C833.141 501.747 835.151 450.896 802.848 408.578Z" fill="#D9D9D9"/>
<path d="M958.516 557.258C947.42 526.589 927.122 483.459 893.079 486.193C872.137 487.874 857.07 503.332 842.86 528.182C815.42 576.166 810.629 651.419 837.235 679.386C866.629 710.285 905.466 707.775 937.425 674.72C968.022 643.072 973.491 598.653 958.516 557.258Z" fill="#D9D9D9"/>
</mask>
<g mask="url(#mask0_101_24)">
<rect width="2000" height="2000" fill="black"/>
</g>
<defs>
<filter id="filter0_b_101_24" x="346.832" y="335.574" width="1318.64" height="1355.23" filterUnits="userSpaceOnUse" color-interpolation-filters="sRGB">
<feFlood flood-opacity="0" result="BackgroundImageFix"/>
<feGaussianBlur in="BackgroundImageFix" stdDeviation="5"/>
<feComposite in2="SourceAlpha" operator="in" result="effect1_backgroundBlur_101_24"/>
<feBlend mode="normal" in="SourceGraphic" in2="effect1_backgroundBlur_101_24" result="shape"/>
</filter>
<filter id="filter1_d_101_24" x="352.832" y="1103.42" width="609.863" height="585.386" filterUnits="userSpaceOnUse" color-interpolation-filters="sRGB">
<feFlood flood-opacity="0" result="BackgroundImageFix"/>
<feColorMatrix in="SourceAlpha" type="matrix" values="0 0 0 0 0 0 0 0 0 0 0 0 0 0 0 0 0 0 127 0" result="hardAlpha"/>
<feOffset dy="4"/>
<feGaussianBlur stdDeviation="2"/>
<feComposite in2="hardAlpha" operator="out"/>
<feColorMatrix type="matrix" values="0 0 0 0 0 0 0 0 0 0 0 0 0 0 0 0 0 0 0.25 0"/>
<feBlend mode="normal" in2="BackgroundImageFix" result="effect1_dropShadow_101_24"/>
<feBlend mode="normal" in="SourceGraphic" in2="effect1_dropShadow_101_24" result="shape"/>
</filter>
<filter id="filter2_d_101_24" x="1051.42" y="756.597" width="608.049" height="594.256" filterUnits="userSpaceOnUse" color-interpolation-filters="sRGB">
<feFlood flood-opacity="0" result="BackgroundImageFix"/>
<feColorMatrix in="SourceAlpha" type="matrix" values="0 0 0 0 0 0 0 0 0 0 0 0 0 0 0 0 0 0 127 0" result="hardAlpha"/>
<feOffset dy="4"/>
<feGaussianBlur stdDeviation="2"/>
<feComposite in2="hardAlpha" operator="out"/>
<feColorMatrix type="matrix" values="0 0 0 0 0 0 0 0 0 0 0 0 0 0 0 0 0 0 0.25 0"/>
<feBlend mode="normal" in2="BackgroundImageFix" result="effect1_dropShadow_101_24"/>
<feBlend mode="normal" in="SourceGraphic" in2="effect1_dropShadow_101_24" result="shape"/>
</filter>
<filter id="filter3_d_101_24" x="378.962" y="345.574" width="605.564" height="598.473" filterUnits="userSpaceOnUse" color-interpolation-filters="sRGB">
<feFlood flood-opacity="0" result="BackgroundImageFix"/>
<feColorMatrix in="SourceAlpha" type="matrix" values="0 0 0 0 0 0 0 0 0 0 0 0 0 0 0 0 0 0 127 0" result="hardAlpha"/>
<feOffset dy="4"/>
<feGaussianBlur stdDeviation="2"/>
<feComposite in2="hardAlpha" operator="out"/>
<feColorMatrix type="matrix" values="0 0 0 0 0 0 0 0 0 0 0 0 0 0 0 0 0 0 0.25 0"/>
<feBlend mode="normal" in2="BackgroundImageFix" result="effect1_dropShadow_101_24"/>
<feBlend mode="normal" in="SourceGraphic" in2="effect1_dropShadow_101_24" result="shape"/>
</filter>
</defs>
</svg>
