<?xml version="1.0" encoding="utf-8"?>
<!-- Svg Vector Icons : http://www.onlinewebfonts.com/icon -->
<!DOCTYPE svg PUBLIC "-//W3C//DTD SVG 1.1//EN" "http://www.w3.org/Graphics/SVG/1.1/DTD/svg11.dtd">
<svg version="1.1" xmlns="http://www.w3.org/2000/svg" xmlns:xlink="http://www.w3.org/1999/xlink" x="0px" y="0px" viewBox="0 0 1000 1000" enable-background="new 0 0 1000 1000" xml:space="preserve">
<metadata> Svg Vector Icons : http://www.onlinewebfonts.com/icon </metadata>
<g><g transform="translate(0.000000,511.000000) scale(0.100000,-0.100000)"><path fill ="#FFFFFF" d="M2326.5,4978.5c-113.5-39.2-224.9-136.2-295.1-251.7l-55.7-97l-6.2-3646.2c-2.1-2007.8-12.4-3648.2-20.6-3648.2c-8.3,0-204.3,189.8-437.5,423c-484.9,487-532.4,517.9-765.6,501.4c-394.1-28.9-625.2-433.3-454-788.3c28.9-55.7,402.4-445.7,1130.8-1174.1L2512.2-4790l1106,1108.1C4619-2679.1,4728.4-2561.5,4759.3-2470.7c119.7,365.2-138.2,734.6-511.7,734.6c-212.5,0-280.6-47.5-744.9-513.8c-227-229-418.9-414.7-427.1-414.7c-8.2,0-18.6,1640.4-20.6,3648.2l-6.2,3646.2l-55.7,97C2852.7,4964,2576.2,5067.2,2326.5,4978.5z"/><path d="M4290.9,3350.4c-206.3-72.2-326-295.1-278.6-517.9c26.8-123.8,175.4-282.7,295.1-315.7c119.7-33,5041.1-31,5150.4,0c179.5,55.7,307.5,229,307.5,421c0,191.9-127.9,365.2-307.5,420.9C9332,3395.8,4396.1,3389.6,4290.9,3350.4z"/><path d="M4255.8,1821.4c-305.4-132.1-342.5-565.4-64-761.4l88.7-61.9h1502.2H7285l90.8,61.9c274.4,194,247.6,602.5-49.5,755.2c-74.3,37.1-142.4,39.2-1537.3,39.2C4530.3,1852.3,4317.7,1848.2,4255.8,1821.4z"/><path d="M4276.5,387.2c-169.2-68.1-272.4-222.9-272.4-412.7c0-150.6,70.2-282.7,194-365.2l84.6-55.7l693.3-6.2c782.1-6.2,808.9-2.1,938.9,140.3c194,216.7,130,546.8-134.1,683c-74.3,37.1-125.9,39.2-765.5,37.1C4614.9,407.9,4307.4,399.6,4276.5,387.2z"/></g></g>
</svg>